<?xml version="1.0" encoding="utf-8"?>
<!-- Generator: Adobe Illustrator 23.1.0, SVG Export Plug-In . SVG Version: 6.00 Build 0)  -->
<svg version="1.1" id="Layer_1" xmlns="http://www.w3.org/2000/svg" xmlns:xlink="http://www.w3.org/1999/xlink" x="0px" y="0px"
	 width="512px" height="512px" viewBox="0 0 512 512" style="enable-background:new 0 0 512 512;" xml:space="preserve">

<defs>

	<filter id="sofGlow" height="300%" width="300%" x="-75%" y="-75%">
		<!-- Thicken out the original shape -->
		<feMorphology operator="dilate" radius="4" in="SourceAlpha" result="thicken" />

		<!-- Use a gaussian blur to create the soft blurriness of the glow -->
		<feGaussianBlur in="thicken" stdDeviation="10" result="blurred" />

		<!-- Change the colour -->
		<feFlood flood-color="rgb(0,186,255)" result="glowColor" />

		<!-- Color in the glows -->
		<feComposite in="glowColor" in2="blurred" operator="in" result="softGlow_colored" />

		<!--	Layer the effects together -->
		<feMerge>
			<feMergeNode in="softGlow_colored"/>
			<feMergeNode in="SourceGraphic"/>
		</feMerge>

	</filter>

</defs>

<style type="text/css">
	.st0{fill:#231F20;stroke:#00AEEF;stroke-width:11.0141;stroke-miterlimit:10;}
	.st1{fill:none;stroke:#00AEEF;stroke-width:11.0141;stroke-miterlimit:10;}
</style>
<rect x="34.5" y="34.5" class="st1" width="443.1" height="443.1" filter="url(#sofGlow)" />
<rect x="82" y="81.8" class="st1" width="347.9" height="347.9" filter="url(#sofGlow)" />
<line class="st1" x1="85.3" y1="140.4" x2="374.2" y2="429.2" filter="url(#sofGlow)" />
<line class="st1" x1="138" y1="81.8" x2="428" y2="371.7" filter="url(#sofGlow)" />
<path class="st1" d="M351.8,427.1"  filter="url(#sofGlow)" />
<path class="st1" d="M351.8,82.6"  filter="url(#sofGlow)" />
<line class="st1" x1="263.6" y1="318.6" x2="264.7" y2="429.6"/>
<line class="st1" x1="261.1" y1="82.6" x2="262.4" y2="206.7"/>
<path class="st1" d="M264.7,429.6"/>
<path class="st1" d="M82,81.8"/>
<path class="st1" d="M82,429.6"/>
<path class="st1" d="M261.1,82.6"/>
<line class="st1" x1="173.3" y1="226.7" x2="173.3" y2="429.6"/>
<line class="st1" x1="180.2" y1="84.5" x2="180.2" y2="123.9"/>
<line class="st1" x1="337.7" y1="392.8" x2="337.7" y2="426.7"/>
<line class="st1" x1="343.9" y1="85.9" x2="343.9" y2="284.8"/>
</svg>
