<?xml version="1.0" encoding="utf-8"?>
<!-- Generator: Adobe Illustrator 23.1.0, SVG Export Plug-In . SVG Version: 6.00 Build 0)  -->
<svg version="1.1" id="Layer_1" xmlns="http://www.w3.org/2000/svg" xmlns:xlink="http://www.w3.org/1999/xlink" x="0px" y="0px"
	 width="512px" height="512px" viewBox="0 0 512 512" style="enable-background:new 0 0 512 512;" xml:space="preserve">
<style type="text/css">
	.st0{opacity:6.000000e-02;enable-background:new    ;}
	.st1{fill:#992F53;}
	.st2{fill:#732E5C;}
	.st3{fill:#E4B1A0;stroke:#845C5C;stroke-width:6;stroke-miterlimit:10;}
	.st4{fill:#A1887C;stroke:#78655C;stroke-width:6;stroke-miterlimit:10;}
	.st5{fill:none;stroke:#000000;stroke-width:6;stroke-miterlimit:10;}
	.st6{display:none;}
	.st7{display:inline;fill:none;stroke:#1EC14C;stroke-width:6;stroke-miterlimit:10;}
	.st8{fill:#FFD600;stroke:#FFC700;stroke-width:9.604;stroke-miterlimit:10;}
	.st9{fill:#FFD600;stroke:#FFC700;stroke-width:12.3622;stroke-miterlimit:10;}
	.st10{fill:#FFEAB4;}
	.st11{display:inline;fill:none;stroke:#000000;stroke-miterlimit:10;}
</style>
<g id="player">
	<ellipse id="shadow" class="st0" cx="341.2" cy="303.2" rx="168.4" ry="208.5"/>
	<g id="mover">
		<g id="body">
			<g id="torso">
				<g>
					<path class="st1" d="M317,43C199.1,43,99.5,138.6,99.5,256.5S199.1,470,317,470v-93.7l0,0"/>
					<path class="st2" d="M319,473.4c-28.3,0.4-58.7-7.4-85.1-17.9c-26.4-10.6-50.8-26.3-71.3-46.1c-20.5-19.8-37.3-43.5-48.6-69.8
						c-11.4-26.2-17.3-54.7-17.4-83.3c0-28.6,6-57.1,17.4-83.3s28.1-50,48.6-69.8s44.9-35.5,71.3-46.1c26.4-10.5,54.8-16,83.2-15.6
						h1.3v1.3v92.3l-4.9-1.8l-0.3-89c-14,0.2-24.2,1.6-37.9,4.4s-27.1,7-39.9,12.4c-25.8,10.7-49.4,26.5-69.3,45.9
						s-36,42.8-46.9,68.3c-11,25.5-16.7,53.3-16.7,81c0,27.8,5.7,55.5,16.7,81s27,48.9,47,68.3c19.9,19.5,43.5,35.2,69.3,45.9
						c12.9,5.4,26.3,9.6,39.9,12.4c13.7,2.8,24.7,4.2,38.7,4.4l0.2-88l4.7-2.9v0.7"/>
					<path class="st2" d="M313.2,89.4"/>
				</g>
				<g id="arms">
					<g id="arm-right">
						<path id="arm_5_" class="st3" d="M389,374.1l-58-4.1l-12,7.7V470c0,0,35.9,0.3,77.6-18.8"/>
						<path id="hand-right" class="st3" d="M466.5,410.8c0,26.8-21.7,48.5-48.5,48.5s-29-13.1-35.3-43.5
							c-5.4-26.2,4.3-53.5,35.3-53.5c10,0-8.8,16.7-1.1,21.9c5.6,3.8,38.6-4.9,42.2,0.8C463.8,392.5,466.5,401.3,466.5,410.8z"/>
					</g>
					<g id="arms-left">
						<path id="arm_1_" class="st3" d="M394.6,61.8C352.9,42.7,317,43,317,43v92.3l15.7,11.8l57.4-6"/>
						<path id="hand-left_1_" class="st3" d="M464.5,102.2c0-26.8-21.7-48.5-48.5-48.5s-29,13.1-35.3,43.5
							c-5.4,26.2,4.3,53.5,35.3,53.5c10,0-8.8-16.7-1.1-21.9c5.6-3.8,38.6,4.9,42.2-0.8C461.8,120.5,464.5,111.7,464.5,102.2z"/>
					</g>
				</g>
				<g id="arms-pushing">
					<path id="arm_3_" class="st3" d="M319,372.1l132.9,6.6l42-23.8H505v18.6l-11.9,11l11.9,1V436l-38.5-8.1l-23,1
						c-8.4,0.4-32.4,14.7-48.9,22.3C352.9,470.3,319,470,319,470"/>
					<path id="arm_4_" class="st3" d="M318.4,136.2L329,143l122.9-8.7l42,23.8H505v-18.6l-12.1-7.4l12.1-4.6v-53l-43.5,10.4l-18-0.8
						c-8.4-0.4-32.4-14.7-48.9-22.3c-37.7-17.3-70.7-17.2-76.4-17.2"/>
				</g>
			</g>
			<g id="feet">
				<path id="foot_1_" class="st4" d="M448.6,323.3c0,23.2-41.8,31.6-93.5,31.6c-93.5,0-93.5-8.4-93.5-31.6s0-34.1,93.5-34.1
					C406.8,289.2,448.6,300.1,448.6,323.3z"/>
				<path id="foot_2_" class="st4" d="M446.1,197.9c0,23.2-41.8,31.6-93.5,31.6c-93.5,0-93.5-8.4-93.5-31.6s0-34.1,93.5-34.1
					C404.2,163.7,446.1,174.6,446.1,197.9z"/>
			</g>
			<g id="head">
				<circle id="head_outline" class="st3" cx="248.8" cy="255.5" r="138.2"/>
				<circle id="eye_1_" class="st5" cx="316.5" cy="320.5" r="16.2"/>
				<circle id="eye" class="st5" cx="316.5" cy="196.6" r="16.2"/>
				<g id="center_guide" class="st6">
					<line class="st7" x1="117.6" y1="255.5" x2="393.8" y2="255.5"/>
					<line class="st7" x1="255.8" y1="117.3" x2="255.8" y2="393.7"/>
				</g>
			</g>
			<g id="hat">
				<path class="st8" d="M188.2,259.7c0,59.9-4.9,106.6,39,106.6s57.6-48.6,57.6-108.5s-13.6-108.5-57.6-108.5
					S188.2,199.8,188.2,259.7z"/>
				<path class="st9" d="M256.8,259.1c0-65.5-1.3-122.2-83.3-122.2c-66.6,0-89.8,53.7-89.8,119.2c0,7.1,0.3,14,0.9,20.7
					c4.7,55.6,29.6,97.3,89,97.3c76.8,0,82.8-40.7,83.3-97.1C256.8,271.2,256.8,265.2,256.8,259.1z"/>
				<g id="highlight">
					<path class="st10" d="M170.2,145.8c0,0,54,2.5,65.1,19.9c14.7,22.9,16.2,65.6,16.2,65.6s-10.9-37.8-23.1-55.3
						C218.3,161.5,170.2,145.8,170.2,145.8z"/>
					<path class="st10" d="M175.1,146.7c0,0-44.7-7.9-64.6,26.2c-0.7,1.2,16.2-12.5,17.1-13.2C141.2,150.7,175.1,146.7,175.1,146.7z
						"/>
					<path class="st10" d="M249.8,292.5c0,0-21.4-6.5-60-9.1c-13.6-1-72.2-3.5-72.2-3.5s33.3,6.2,50.6,7.7
						c45.8,3.8,73.2,12.5,73.2,20.4c0,0-2.5,23.1-6.1,30.7c-2.6,5.3-17.7,20.7-17.7,20.7s11.9-2,22.2-18.4
						C251.8,321.9,249.8,292.5,249.8,292.5z"/>
				</g>
				<path class="st9" d="M256.6,287.6c-43.3-18.8-171.1-15.1-171.1-15.1"/>
				<path class="st9" d="M253.3,238.1C210,256.9,87.1,251.5,87.1,251.5"/>
				<path class="st10" d="M138,241.7c-2.6,0.6-10.4,3.5-10.4,3.5s15.5,0.1,22.6,0c6.7-0.1,53.6-2.5,53.6-2.5s-42.3-2.6-48-2.6
					C150.1,240,142.3,240.6,138,241.7z"/>
			</g>
		</g>
	</g>
</g>
<g id="center_guide_1_" class="st6">
	<line class="st11" x1="0" y1="0" x2="512.3" y2="512.3"/>
	<line class="st11" x1="512" y1="0" x2="-0.5" y2="512.5"/>
</g>
</svg>
