<?xml version="1.0" encoding="utf-8"?>
<!-- Generator: Adobe Illustrator 23.1.0, SVG Export Plug-In . SVG Version: 6.00 Build 0)  -->
<svg version="1.1" xmlns="http://www.w3.org/2000/svg" xmlns:xlink="http://www.w3.org/1999/xlink" x="0px" y="0px" width="512px"
	 height="512px" viewBox="0 0 512 512" style="enable-background:new 0 0 512 512;" xml:space="preserve">
<style type="text/css">
	.st0{fill:none;stroke:#000000;stroke-width:6;stroke-miterlimit:10;}
	.st1{fill:#FFFFFF;stroke:#000000;stroke-width:6;stroke-miterlimit:10;}
	.st2{display:none;}
	.st3{display:inline;fill:none;stroke:#1EC14C;stroke-width:6;stroke-miterlimit:10;}
	.st4{display:inline;fill:none;stroke:#000000;stroke-miterlimit:10;}
</style>
<g id="player">
	<g id="mover">
		<g id="body">
			<g id="torso">
				<path class="st0" d="M316.5,135l0.5-92C199.1,43,99.5,138.6,99.5,256.5S199.1,470,317,470v-93.7l0,0"/>
				<g id="arms">
					<g id="arm-right">
						<path id="arm_4_" class="st0" d="M319,377.7V470c0,0,35.9,0.3,77.6-18.8"/>
						<path id="arm_5_" class="st0" d="M389,374.1l-58-4.1"/>
						<path id="hand-right" class="st0" d="M466.5,410.8c0,26.8-21.7,48.5-48.5,48.5s-29-13.1-35.3-43.5
							c-5.4-26.2,4.3-53.5,35.3-53.5c10,0-8.8,16.7-1.1,21.9c5.6,3.8,38.6-4.9,42.2,0.8C463.8,392.5,466.5,401.3,466.5,410.8z"/>
					</g>
					<g id="arms-left">
						<path id="arm_6_" class="st0" d="M394.6,61.8C352.9,42.7,317,43,317,43v92.3"/>
						<path id="arm_1_" class="st0" d="M329,143l58-4.1"/>
						<path id="hand-left_1_" class="st0" d="M464.5,102.2c0-26.8-21.7-48.5-48.5-48.5s-29,13.1-35.3,43.5
							c-5.4,26.2,4.3,53.5,35.3,53.5c10,0-8.8-16.7-1.1-21.9c5.6-3.8,38.6,4.9,42.2-0.8C461.8,120.5,464.5,111.7,464.5,102.2z"/>
					</g>
				</g>
				<g id="arms-pushing">
					<path id="arm_3_" class="st0" d="M325.7,369.8l126.2,8.9l42-23.8H505v18.6l-11.9,11l11.9,1V436l-38.5-8.1l-23,1
						c-8.4,0.4-32.4,14.7-48.9,22.3C352.9,470.3,317,470,317,470"/>
					<path id="arm_2_" class="st0" d="M329,143l122.9-8.7l42,23.8H505v-18.6l-12.1-7.4l12.1-4.6v-53l-43.5,10.4l-18-0.8
						c-8.4-0.4-32.4-14.7-48.9-22.3C352.9,42.7,317,43,317,43v92.3"/>
				</g>
			</g>
			<g id="feet">
				<path id="foot_1_" class="st0" d="M448.6,323.3c0,23.2-41.8,31.6-93.5,31.6c-93.5,0-93.5-8.4-93.5-31.6s0-34.1,93.5-34.1
					C406.8,289.2,448.6,300.1,448.6,323.3z"/>
				<path id="foot_2_" class="st0" d="M446.1,197.9c0,23.2-41.8,31.6-93.5,31.6c-93.5,0-93.5-8.4-93.5-31.6s0-34.1,93.5-34.1
					C404.2,163.7,446.1,174.6,446.1,197.9z"/>
			</g>
			<g id="head">
				<circle id="head_outline" class="st1" cx="248.8" cy="255.5" r="138.2"/>
				<circle id="eye_1_" class="st0" cx="316.5" cy="320.5" r="16.2"/>
				<circle id="eye" class="st0" cx="316.5" cy="196.6" r="16.2"/>
				<g id="center_guide" class="st2">
					<line class="st3" x1="117.6" y1="255.5" x2="393.8" y2="255.5"/>
					<line class="st3" x1="255.8" y1="117.3" x2="255.8" y2="393.7"/>
				</g>
			</g>
		</g>
	</g>
</g>
<g id="center_guide_1_" class="st2">
	<line class="st4" x1="0" y1="0" x2="512.3" y2="512.3"/>
	<line class="st4" x1="512" y1="0" x2="-0.5" y2="512.5"/>
</g>
</svg>
